<svg viewBox="0 0 192 80">
	<path style="fill:currentColor" d="m186 54.8h-8.6c-4.7 0-8.6 3.9-8.6 8.6 0 4.8 3.9 8.6 8.6 8.6h8.6v-8.1h-3.1v-0.9h3.1z"/>
	<path style="fill:currentColor" d="m23.4 54.8h-8.6v4.8l-8.6-4.8v17.2h17.2zm20.4 17.2l-9.4-17.2-9.4 17.2zm11.6-17.2h-6.3c-3.4 0-6.3 2.8-6.3 6.3 0 2.8 2 5.3 4.6 6v4.9h6.3c3.5 0 6.3-2.9 6.3-6.3 0-2.9-2-5.3-4.6-6zm23.5 0h-17.1v8.5h2.2v8.6h12.7v-8.6h2.2zm18.4 17.2l-9.5-17.2-9.4 17.2zm14.3-17.2h-12.7v17.2h17.2v-8.6h-4.5v-8.6zm20.3 9v2.1h-0.9v-2.9h3.9v-8.2h-8.5c-4.8 0-8.6 3.9-8.6 8.6 0 4.7 3.8 8.6 8.6 8.6h8.5v-8.2z"/>
	<path style="fill:currentColor" d="m39 7.1h-16.4l-0.1 9-16.4-9v32.9h32.9zm36.4 18.6v-4.3h-5.9v-1.6h5.9v-12.7h-31.7v32.9h31.7v-12.7h-5.9v-1.6zm37.6-18.6h-32.9v32.9l16.4-9 16.5 9zm29 0h-24.3v32.9h32.9v-16.4h-8.6v-16.5zm41.6 0h-32.9l7.5 16.5v16.4h18v-16.4z"/>
	<path style="fill:currentColor" d="m146 72c0 0 0-4 0-8 0-4 0-9.8-24-12-16.2-1.5-116-4-116-4-0.1 0 0-4 0-4h75 105v8c0 0-28 0-28 12 0 4 0 8 0 8"/>
</svg>