<svg viewBox="0 0 320 32">
	<path style="fill:currentColor" d="m307 10.8h-8.6c-4.7 0-8.6 3.9-8.6 8.6 0 4.8 3.9 8.6 8.6 8.6h8.6v-8.1h-3.1v-0.9h3.1z"/>
	<path style="fill:currentColor" d="m144.4 10.8h-8.6v4.8l-8.6-4.8v17.2h17.2zm20.4 17.2l-9.4-17.2-9.4 17.2zm11.6-17.2h-6.3c-3.4 0-6.3 2.8-6.3 6.3 0 2.8 2 5.3 4.6 6v4.9h6.3c3.5 0 6.3-2.9 6.3-6.3 0-2.9-2-5.3-4.6-6zm23.5 0h-17.1v8.5h2.2v8.6h12.7v-8.6h2.2zm18.4 17.2l-9.5-17.2-9.4 17.2zm14.3-17.2h-12.7v17.2h17.2v-8.6h-4.5v-8.6zm20.3 9v2.1h-0.9v-2.9h3.9v-8.2h-8.5c-4.8 0-8.6 3.9-8.6 8.6 0 4.7 3.8 8.6 8.6 8.6h8.5v-8.2z"/>
	<path style="fill:currentColor" d="m32.8 4.4h-9.8v5.4l-9.8-5.4v19.6h19.6zm21.7 11.1v-2.6h-3.6v-0.9h3.6v-7.6h-18.9v19.6h18.9v-7.6h-3.6v-0.9zm22.4-11.1h-19.6v19.6l9.8-5.4 9.8 5.4zm17.3 0h-14.5v19.6h19.6v-9.8h-5.1v-9.8zm24.8 0h-19.6l4.4 9.8v9.8h10.8v-9.8z"/>
	<path style="fill:currentColor" d="m267 28c0 0 0-4 0-8 0-4 0-9.8-24-12-16.2-1.5-124-3-141.4-2.8-0.8 0-2.6-1.2-2.6-1.2h208v4c0 0-28 0-28 12 0 4 0 8 0 8"/>
</svg>